<?xml version="1.0" standalone="no"?>
<!DOCTYPE svg PUBLIC "-//W3C//DTD SVG 20010904//EN"
 "http://www.w3.org/TR/2001/REC-SVG-20010904/DTD/svg10.dtd">
<svg version="1.0" xmlns="http://www.w3.org/2000/svg"
 width="317.000000pt" height="95.000000pt" viewBox="0 0 317.000000 95.000000"
 preserveAspectRatio="xMidYMid meet">

<g transform="translate(0.000000,95.000000) scale(0.100000,-0.100000)"
fill="#000000" stroke="none">
<path d="M0 475 l0 -475 1585 0 1585 0 0 475 0 475 -1585 0 -1585 0 0 -475z
m898 3 l2 -448 -440 0 -440 0 0 443 c0 244 3 447 7 450 3 4 200 6 437 5 l431
-3 3 -447z m397 122 c3 -5 -22 -10 -62 -12 l-68 -3 -3 -47 -3 -48 50 0 c28 0
51 -4 51 -10 0 -5 -22 -10 -50 -10 -49 0 -50 -1 -50 -30 0 -16 -4 -30 -10 -30
-6 0 -10 40 -10 100 l0 100 74 0 c41 0 77 -4 81 -10z m904 -15 c22 -22 8 -27
-26 -10 -58 29 -122 -22 -108 -85 9 -42 62 -69 100 -52 39 18 53 14 26 -8 -64
-54 -165 14 -146 98 6 29 36 64 65 75 22 9 73 -1 89 -18z m-719 -95 c0 -47 -4
-80 -10 -80 -6 0 -10 33 -10 80 0 47 4 80 10 80 6 0 10 -33 10 -80z m1100 0
c0 -47 -4 -80 -10 -80 -6 0 -10 33 -10 80 0 47 4 80 10 80 6 0 10 -33 10 -80z
m70 60 c0 -17 5 -19 24 -14 38 9 66 -26 66 -81 0 -25 -4 -45 -10 -45 -5 0 -10
18 -10 39 0 49 -23 76 -51 61 -14 -8 -19 -21 -19 -55 0 -25 -4 -45 -10 -45 -6
0 -10 33 -10 80 0 47 4 80 10 80 6 0 10 -9 10 -20z m-1248 -32 c9 -7 18 -22
20 -33 3 -17 -3 -20 -44 -23 -27 -2 -48 -7 -48 -13 0 -16 30 -22 56 -11 26 12
32 4 12 -16 -33 -33 -98 2 -98 52 0 46 64 73 102 44z m148 -48 c0 -33 -4 -60
-10 -60 -6 0 -10 27 -10 60 0 33 4 60 10 60 6 0 10 -27 10 -60z m154 38 c22
-30 20 -54 -5 -79 -16 -16 -29 -20 -55 -16 -31 5 -34 3 -34 -19 0 -13 -4 -24
-10 -24 -6 0 -10 33 -10 78 l0 79 49 2 c41 1 52 -3 65 -21z m162 -3 c22 -33
11 -45 -42 -45 -45 0 -59 -14 -24 -25 10 -3 29 -1 41 5 17 9 20 9 17 -1 -14
-42 -86 -33 -102 13 -23 65 72 111 110 53z m480 0 c34 -52 -14 -110 -74 -89
-64 23 -46 114 23 114 26 0 39 -6 51 -25z m156 8 c10 -9 18 -24 18 -35 0 -15
-8 -18 -51 -18 -45 0 -50 -2 -39 -15 14 -17 46 -20 55 -5 4 6 11 7 17 4 15 -9
-19 -34 -46 -34 -49 0 -79 86 -38 109 26 16 63 13 84 -6z m380 0 c22 -20 23
-61 1 -85 -34 -38 -103 -11 -103 40 0 54 62 81 102 45z"/>
<path d="M363 731 c-69 -23 -132 -77 -168 -142 -30 -54 -30 -55 -33 -241 l-4
-188 61 0 61 0 0 160 c0 171 8 210 53 258 46 50 71 56 255 60 l172 4 0 54 0
54 -172 0 c-140 -1 -183 -4 -225 -19z"/>
<path d="M450 455 l0 -55 155 0 155 0 0 55 0 55 -155 0 -155 0 0 -55z"/>
<path d="M1337 504 c-15 -16 -5 -24 29 -24 24 0 34 4 32 13 -5 13 -50 22 -61
11z"/>
<path d="M1620 495 c-10 -12 -10 -21 -2 -40 13 -29 43 -33 66 -9 19 18 19 20
6 45 -13 23 -52 25 -70 4z"/>
<path d="M1787 504 c-15 -16 -5 -24 29 -24 24 0 34 4 32 13 -5 13 -50 22 -61
11z"/>
<path d="M2260 495 c-15 -18 -4 -52 19 -60 40 -12 70 20 51 56 -13 22 -52 25
-70 4z"/>
<path d="M2427 504 c-15 -16 -5 -24 29 -24 24 0 34 4 32 13 -5 13 -50 22 -61
11z"/>
<path d="M2810 495 c-15 -18 -10 -45 13 -59 34 -22 73 27 47 59 -16 19 -44 19
-60 0z"/>
</g>
</svg>
